<mxfile host="app.diagrams.net" modified="2024-06-24T17:18:05.184Z" agent="Mozilla/5.0 (Windows NT 10.0; Win64; x64) AppleWebKit/537.36 (KHTML, like Gecko) Chrome/126.0.0.0 Safari/537.36" etag="zORygKhEMNo53PwS5s5C" version="24.6.2" type="google">
  <diagram name="Page-1" id="odiQoUfNWOraybCW2yab">
    <mxGraphModel grid="1" page="1" gridSize="10" guides="1" tooltips="1" connect="1" arrows="1" fold="1" pageScale="1" pageWidth="850" pageHeight="1100" math="0" shadow="0">
      <root>
        <mxCell id="0" />
        <mxCell id="1" parent="0" />
        <mxCell id="ijBdnt6vm184Yk4polvg-1" value="&lt;b style=&quot;&quot;&gt;&lt;i&gt;&lt;font style=&quot;font-size: 20px;&quot;&gt;Patron Decorator&lt;/font&gt;&lt;/i&gt;&lt;/b&gt;" style="text;html=1;align=center;verticalAlign=middle;resizable=0;points=[];autosize=1;strokeColor=none;fillColor=none;" vertex="1" parent="1">
          <mxGeometry x="-280" y="-3370" width="190" height="40" as="geometry" />
        </mxCell>
        <mxCell id="ijBdnt6vm184Yk4polvg-2" value="&lt;span style=&quot;font-size: 20px;&quot;&gt;&lt;b&gt;&lt;i&gt;ejercicio_20b_SecuenciaDeFiltros&lt;/i&gt;&lt;/b&gt;&lt;/span&gt;" style="text;html=1;align=center;verticalAlign=middle;resizable=0;points=[];autosize=1;strokeColor=none;fillColor=none;" vertex="1" parent="1">
          <mxGeometry x="1650" y="-2359" width="350" height="40" as="geometry" />
        </mxCell>
        <mxCell id="ijBdnt6vm184Yk4polvg-103" style="edgeStyle=orthogonalEdgeStyle;rounded=0;orthogonalLoop=1;jettySize=auto;html=1;" edge="1" parent="1" source="ijBdnt6vm184Yk4polvg-4" target="ijBdnt6vm184Yk4polvg-11">
          <mxGeometry relative="1" as="geometry">
            <Array as="points">
              <mxPoint x="270" y="-3160" />
              <mxPoint x="270" y="-3160" />
            </Array>
          </mxGeometry>
        </mxCell>
        <mxCell id="ijBdnt6vm184Yk4polvg-4" value="PNGFilterLauncher" style="swimlane;fontStyle=0;align=center;verticalAlign=top;childLayout=stackLayout;horizontal=1;startSize=30;horizontalStack=0;resizeParent=1;resizeLast=0;collapsible=1;marginBottom=0;rounded=0;shadow=0;strokeWidth=1;fillColor=#fff2cc;strokeColor=#d6b656;" vertex="1" parent="1">
          <mxGeometry x="-240" y="-3280" width="400" height="190" as="geometry">
            <mxRectangle x="110" y="-20" width="160" height="26" as="alternateBounds" />
          </mxGeometry>
        </mxCell>
        <mxCell id="ijBdnt6vm184Yk4polvg-5" value="- inputFile : File" style="text;align=left;verticalAlign=top;spacingLeft=4;spacingRight=4;overflow=hidden;rotatable=0;points=[[0,0.5],[1,0.5]];portConstraint=eastwest;rounded=0;shadow=0;html=0;" vertex="1" parent="ijBdnt6vm184Yk4polvg-4">
          <mxGeometry y="30" width="400" height="24" as="geometry" />
        </mxCell>
        <mxCell id="ijBdnt6vm184Yk4polvg-6" value="- outputFile : File" style="text;align=left;verticalAlign=top;spacingLeft=4;spacingRight=4;overflow=hidden;rotatable=0;points=[[0,0.5],[1,0.5]];portConstraint=eastwest;rounded=0;shadow=0;html=0;" vertex="1" parent="ijBdnt6vm184Yk4polvg-4">
          <mxGeometry y="54" width="400" height="24" as="geometry" />
        </mxCell>
        <mxCell id="ijBdnt6vm184Yk4polvg-7" value="" style="line;html=1;strokeWidth=1;align=left;verticalAlign=middle;spacingTop=-1;spacingLeft=3;spacingRight=3;rotatable=0;labelPosition=right;points=[];portConstraint=eastwest;" vertex="1" parent="ijBdnt6vm184Yk4polvg-4">
          <mxGeometry y="78" width="400" height="8" as="geometry" />
        </mxCell>
        <mxCell id="ijBdnt6vm184Yk4polvg-8" value="+ &lt;&lt;static&gt;&gt; main( args : String[*] )" style="text;align=left;verticalAlign=top;spacingLeft=4;spacingRight=4;overflow=hidden;rotatable=0;points=[[0,0.5],[1,0.5]];portConstraint=eastwest;rounded=0;shadow=0;html=0;" vertex="1" parent="ijBdnt6vm184Yk4polvg-4">
          <mxGeometry y="86" width="400" height="24" as="geometry" />
        </mxCell>
        <mxCell id="ijBdnt6vm184Yk4polvg-9" value="+ &lt;&lt;static&gt;&gt; processArgs( args : String[*] )&#xa;" style="text;align=left;verticalAlign=top;spacingLeft=4;spacingRight=4;overflow=hidden;rotatable=0;points=[[0,0.5],[1,0.5]];portConstraint=eastwest;rounded=0;shadow=0;html=0;" vertex="1" parent="ijBdnt6vm184Yk4polvg-4">
          <mxGeometry y="110" width="400" height="24" as="geometry" />
        </mxCell>
        <mxCell id="ijBdnt6vm184Yk4polvg-10" value="+ &lt;&lt;static&gt;&gt; initializeFilters()" style="text;align=left;verticalAlign=top;spacingLeft=4;spacingRight=4;overflow=hidden;rotatable=0;points=[[0,0.5],[1,0.5]];portConstraint=eastwest;rounded=0;shadow=0;html=0;" vertex="1" parent="ijBdnt6vm184Yk4polvg-4">
          <mxGeometry y="134" width="400" height="24" as="geometry" />
        </mxCell>
        <mxCell id="ijBdnt6vm184Yk4polvg-11" value="&lt;&lt;interface&gt;&gt;&#xa;ImageFilter" style="swimlane;fontStyle=0;align=center;verticalAlign=top;childLayout=stackLayout;horizontal=1;startSize=40;horizontalStack=0;resizeParent=1;resizeLast=0;collapsible=1;marginBottom=0;rounded=0;shadow=0;strokeWidth=1;fillColor=#fff2cc;strokeColor=#d6b656;" vertex="1" parent="1">
          <mxGeometry x="300" y="-3220" width="320" height="80" as="geometry">
            <mxRectangle x="110" y="-20" width="160" height="26" as="alternateBounds" />
          </mxGeometry>
        </mxCell>
        <mxCell id="ijBdnt6vm184Yk4polvg-12" value="" style="line;html=1;strokeWidth=1;align=left;verticalAlign=middle;spacingTop=-1;spacingLeft=3;spacingRight=3;rotatable=0;labelPosition=right;points=[];portConstraint=eastwest;" vertex="1" parent="ijBdnt6vm184Yk4polvg-11">
          <mxGeometry y="40" width="320" height="8" as="geometry" />
        </mxCell>
        <mxCell id="ijBdnt6vm184Yk4polvg-13" value="+ filter( image : BufferedImage ) : BufferedImage " style="text;align=left;verticalAlign=top;spacingLeft=4;spacingRight=4;overflow=hidden;rotatable=0;points=[[0,0.5],[1,0.5]];portConstraint=eastwest;rounded=0;shadow=0;html=0;" vertex="1" parent="ijBdnt6vm184Yk4polvg-11">
          <mxGeometry y="48" width="320" height="24" as="geometry" />
        </mxCell>
        <mxCell id="ijBdnt6vm184Yk4polvg-14" style="edgeStyle=orthogonalEdgeStyle;rounded=0;orthogonalLoop=1;jettySize=auto;html=1;endSize=12;startSize=12;endArrow=block;endFill=0;" edge="1" parent="1" source="ijBdnt6vm184Yk4polvg-15">
          <mxGeometry relative="1" as="geometry">
            <mxPoint x="460" y="-2919" as="targetPoint" />
            <Array as="points">
              <mxPoint x="460" y="-2799" />
            </Array>
          </mxGeometry>
        </mxCell>
        <mxCell id="ijBdnt6vm184Yk4polvg-15" value="Artifacter" style="swimlane;fontStyle=0;align=center;verticalAlign=top;childLayout=stackLayout;horizontal=1;startSize=30;horizontalStack=0;resizeParent=1;resizeLast=0;collapsible=1;marginBottom=0;rounded=0;shadow=0;strokeWidth=1;fillColor=#fff2cc;strokeColor=#d6b656;" vertex="1" parent="1">
          <mxGeometry x="120" y="-2839" width="280" height="80" as="geometry">
            <mxRectangle x="110" y="-20" width="160" height="26" as="alternateBounds" />
          </mxGeometry>
        </mxCell>
        <mxCell id="ijBdnt6vm184Yk4polvg-16" value="" style="line;html=1;strokeWidth=1;align=left;verticalAlign=middle;spacingTop=-1;spacingLeft=3;spacingRight=3;rotatable=0;labelPosition=right;points=[];portConstraint=eastwest;" vertex="1" parent="ijBdnt6vm184Yk4polvg-15">
          <mxGeometry y="30" width="280" height="8" as="geometry" />
        </mxCell>
        <mxCell id="ijBdnt6vm184Yk4polvg-17" value="+ filter( image : BufferedImage ) : BufferedImage " style="text;align=left;verticalAlign=top;spacingLeft=4;spacingRight=4;overflow=hidden;rotatable=0;points=[[0,0.5],[1,0.5]];portConstraint=eastwest;rounded=0;shadow=0;html=0;" vertex="1" parent="ijBdnt6vm184Yk4polvg-15">
          <mxGeometry y="38" width="280" height="24" as="geometry" />
        </mxCell>
        <mxCell id="ijBdnt6vm184Yk4polvg-18" style="edgeStyle=orthogonalEdgeStyle;rounded=0;orthogonalLoop=1;jettySize=auto;html=1;endSize=12;startSize=12;endArrow=block;endFill=0;" edge="1" parent="1" source="ijBdnt6vm184Yk4polvg-19">
          <mxGeometry relative="1" as="geometry">
            <mxPoint x="460" y="-2919" as="targetPoint" />
            <Array as="points">
              <mxPoint x="460" y="-2559" />
            </Array>
          </mxGeometry>
        </mxCell>
        <mxCell id="ijBdnt6vm184Yk4polvg-19" value="Rainbow" style="swimlane;fontStyle=0;align=center;verticalAlign=top;childLayout=stackLayout;horizontal=1;startSize=30;horizontalStack=0;resizeParent=1;resizeLast=0;collapsible=1;marginBottom=0;rounded=0;shadow=0;strokeWidth=1;fillColor=#fff2cc;strokeColor=#d6b656;" vertex="1" parent="1">
          <mxGeometry x="120" y="-2599" width="280" height="80" as="geometry">
            <mxRectangle x="110" y="-20" width="160" height="26" as="alternateBounds" />
          </mxGeometry>
        </mxCell>
        <mxCell id="ijBdnt6vm184Yk4polvg-20" value="" style="line;html=1;strokeWidth=1;align=left;verticalAlign=middle;spacingTop=-1;spacingLeft=3;spacingRight=3;rotatable=0;labelPosition=right;points=[];portConstraint=eastwest;" vertex="1" parent="ijBdnt6vm184Yk4polvg-19">
          <mxGeometry y="30" width="280" height="8" as="geometry" />
        </mxCell>
        <mxCell id="ijBdnt6vm184Yk4polvg-21" value="+ filter( image : BufferedImage ) : BufferedImage " style="text;align=left;verticalAlign=top;spacingLeft=4;spacingRight=4;overflow=hidden;rotatable=0;points=[[0,0.5],[1,0.5]];portConstraint=eastwest;rounded=0;shadow=0;html=0;" vertex="1" parent="ijBdnt6vm184Yk4polvg-19">
          <mxGeometry y="38" width="280" height="24" as="geometry" />
        </mxCell>
        <mxCell id="ijBdnt6vm184Yk4polvg-22" style="edgeStyle=orthogonalEdgeStyle;rounded=0;orthogonalLoop=1;jettySize=auto;html=1;endSize=12;startSize=12;endArrow=block;endFill=0;" edge="1" parent="1" source="ijBdnt6vm184Yk4polvg-23">
          <mxGeometry relative="1" as="geometry">
            <mxPoint x="460" y="-2919" as="targetPoint" />
            <Array as="points">
              <mxPoint x="460" y="-2679" />
            </Array>
          </mxGeometry>
        </mxCell>
        <mxCell id="ijBdnt6vm184Yk4polvg-23" value="Dull" style="swimlane;fontStyle=0;align=center;verticalAlign=top;childLayout=stackLayout;horizontal=1;startSize=30;horizontalStack=0;resizeParent=1;resizeLast=0;collapsible=1;marginBottom=0;rounded=0;shadow=0;strokeWidth=1;fillColor=#fff2cc;strokeColor=#d6b656;" vertex="1" parent="1">
          <mxGeometry x="120" y="-2719" width="280" height="80" as="geometry">
            <mxRectangle x="110" y="-20" width="160" height="26" as="alternateBounds" />
          </mxGeometry>
        </mxCell>
        <mxCell id="ijBdnt6vm184Yk4polvg-24" value="" style="line;html=1;strokeWidth=1;align=left;verticalAlign=middle;spacingTop=-1;spacingLeft=3;spacingRight=3;rotatable=0;labelPosition=right;points=[];portConstraint=eastwest;" vertex="1" parent="ijBdnt6vm184Yk4polvg-23">
          <mxGeometry y="30" width="280" height="8" as="geometry" />
        </mxCell>
        <mxCell id="ijBdnt6vm184Yk4polvg-25" value="+ filter( image : BufferedImage ) : BufferedImage " style="text;align=left;verticalAlign=top;spacingLeft=4;spacingRight=4;overflow=hidden;rotatable=0;points=[[0,0.5],[1,0.5]];portConstraint=eastwest;rounded=0;shadow=0;html=0;" vertex="1" parent="ijBdnt6vm184Yk4polvg-23">
          <mxGeometry y="38" width="280" height="24" as="geometry" />
        </mxCell>
        <mxCell id="ijBdnt6vm184Yk4polvg-26" style="edgeStyle=orthogonalEdgeStyle;rounded=0;orthogonalLoop=1;jettySize=auto;html=1;endSize=12;startSize=12;endArrow=block;endFill=0;" edge="1" parent="1" source="ijBdnt6vm184Yk4polvg-27">
          <mxGeometry relative="1" as="geometry">
            <mxPoint x="460" y="-2919" as="targetPoint" />
            <Array as="points">
              <mxPoint x="460" y="-2799" />
            </Array>
          </mxGeometry>
        </mxCell>
        <mxCell id="ijBdnt6vm184Yk4polvg-27" value="Repeater" style="swimlane;fontStyle=0;align=center;verticalAlign=top;childLayout=stackLayout;horizontal=1;startSize=30;horizontalStack=0;resizeParent=1;resizeLast=0;collapsible=1;marginBottom=0;rounded=0;shadow=0;strokeWidth=1;fillColor=#fff2cc;strokeColor=#d6b656;" vertex="1" parent="1">
          <mxGeometry x="520" y="-2839" width="280" height="80" as="geometry">
            <mxRectangle x="110" y="-20" width="160" height="26" as="alternateBounds" />
          </mxGeometry>
        </mxCell>
        <mxCell id="ijBdnt6vm184Yk4polvg-28" value="" style="line;html=1;strokeWidth=1;align=left;verticalAlign=middle;spacingTop=-1;spacingLeft=3;spacingRight=3;rotatable=0;labelPosition=right;points=[];portConstraint=eastwest;" vertex="1" parent="ijBdnt6vm184Yk4polvg-27">
          <mxGeometry y="30" width="280" height="8" as="geometry" />
        </mxCell>
        <mxCell id="ijBdnt6vm184Yk4polvg-29" value="+ filter( image : BufferedImage ) : BufferedImage " style="text;align=left;verticalAlign=top;spacingLeft=4;spacingRight=4;overflow=hidden;rotatable=0;points=[[0,0.5],[1,0.5]];portConstraint=eastwest;rounded=0;shadow=0;html=0;" vertex="1" parent="ijBdnt6vm184Yk4polvg-27">
          <mxGeometry y="38" width="280" height="24" as="geometry" />
        </mxCell>
        <mxCell id="ijBdnt6vm184Yk4polvg-30" style="edgeStyle=orthogonalEdgeStyle;rounded=0;orthogonalLoop=1;jettySize=auto;html=1;endSize=12;startSize=12;endArrow=block;endFill=0;" edge="1" parent="1" source="ijBdnt6vm184Yk4polvg-31">
          <mxGeometry relative="1" as="geometry">
            <mxPoint x="460" y="-2919" as="targetPoint" />
            <Array as="points">
              <mxPoint x="460" y="-2559" />
            </Array>
          </mxGeometry>
        </mxCell>
        <mxCell id="ijBdnt6vm184Yk4polvg-31" value="RGBShiftRepeater" style="swimlane;fontStyle=0;align=center;verticalAlign=top;childLayout=stackLayout;horizontal=1;startSize=30;horizontalStack=0;resizeParent=1;resizeLast=0;collapsible=1;marginBottom=0;rounded=0;shadow=0;strokeWidth=1;fillColor=#fff2cc;strokeColor=#d6b656;" vertex="1" parent="1">
          <mxGeometry x="520" y="-2599" width="280" height="80" as="geometry">
            <mxRectangle x="110" y="-20" width="160" height="26" as="alternateBounds" />
          </mxGeometry>
        </mxCell>
        <mxCell id="ijBdnt6vm184Yk4polvg-32" value="" style="line;html=1;strokeWidth=1;align=left;verticalAlign=middle;spacingTop=-1;spacingLeft=3;spacingRight=3;rotatable=0;labelPosition=right;points=[];portConstraint=eastwest;" vertex="1" parent="ijBdnt6vm184Yk4polvg-31">
          <mxGeometry y="30" width="280" height="8" as="geometry" />
        </mxCell>
        <mxCell id="ijBdnt6vm184Yk4polvg-33" value="+ filter( image : BufferedImage ) : BufferedImage " style="text;align=left;verticalAlign=top;spacingLeft=4;spacingRight=4;overflow=hidden;rotatable=0;points=[[0,0.5],[1,0.5]];portConstraint=eastwest;rounded=0;shadow=0;html=0;" vertex="1" parent="ijBdnt6vm184Yk4polvg-31">
          <mxGeometry y="38" width="280" height="24" as="geometry" />
        </mxCell>
        <mxCell id="ijBdnt6vm184Yk4polvg-34" style="edgeStyle=orthogonalEdgeStyle;rounded=0;orthogonalLoop=1;jettySize=auto;html=1;endSize=12;startSize=12;endArrow=block;endFill=0;" edge="1" parent="1" source="ijBdnt6vm184Yk4polvg-35">
          <mxGeometry relative="1" as="geometry">
            <mxPoint x="460" y="-2919" as="targetPoint" />
            <Array as="points">
              <mxPoint x="460" y="-2679" />
            </Array>
          </mxGeometry>
        </mxCell>
        <mxCell id="ijBdnt6vm184Yk4polvg-35" value="RGBShifter" style="swimlane;fontStyle=0;align=center;verticalAlign=top;childLayout=stackLayout;horizontal=1;startSize=30;horizontalStack=0;resizeParent=1;resizeLast=0;collapsible=1;marginBottom=0;rounded=0;shadow=0;strokeWidth=1;fillColor=#fff2cc;strokeColor=#d6b656;" vertex="1" parent="1">
          <mxGeometry x="520" y="-2719" width="280" height="80" as="geometry">
            <mxRectangle x="110" y="-20" width="160" height="26" as="alternateBounds" />
          </mxGeometry>
        </mxCell>
        <mxCell id="ijBdnt6vm184Yk4polvg-36" value="" style="line;html=1;strokeWidth=1;align=left;verticalAlign=middle;spacingTop=-1;spacingLeft=3;spacingRight=3;rotatable=0;labelPosition=right;points=[];portConstraint=eastwest;" vertex="1" parent="ijBdnt6vm184Yk4polvg-35">
          <mxGeometry y="30" width="280" height="8" as="geometry" />
        </mxCell>
        <mxCell id="ijBdnt6vm184Yk4polvg-37" value="+ filter( image : BufferedImage ) : BufferedImage " style="text;align=left;verticalAlign=top;spacingLeft=4;spacingRight=4;overflow=hidden;rotatable=0;points=[[0,0.5],[1,0.5]];portConstraint=eastwest;rounded=0;shadow=0;html=0;" vertex="1" parent="ijBdnt6vm184Yk4polvg-35">
          <mxGeometry y="38" width="280" height="24" as="geometry" />
        </mxCell>
        <mxCell id="ijBdnt6vm184Yk4polvg-38" value="filters" style="text;html=1;align=center;verticalAlign=middle;whiteSpace=wrap;rounded=0;fontSize=14;" vertex="1" parent="1">
          <mxGeometry x="200" y="-3220" width="50" height="18.75" as="geometry" />
        </mxCell>
        <mxCell id="ijBdnt6vm184Yk4polvg-39" value="*" style="text;html=1;align=center;verticalAlign=middle;whiteSpace=wrap;rounded=0;fontSize=22;" vertex="1" parent="1">
          <mxGeometry x="180" y="-3226.25" width="30" height="37.5" as="geometry" />
        </mxCell>
        <mxCell id="ijBdnt6vm184Yk4polvg-41" value="activeFilters" style="text;html=1;align=center;verticalAlign=middle;whiteSpace=wrap;rounded=0;fontSize=14;" vertex="1" parent="1">
          <mxGeometry x="200" y="-3178.13" width="80" height="16.25" as="geometry" />
        </mxCell>
        <mxCell id="ijBdnt6vm184Yk4polvg-43" value="&lt;b style=&quot;font-size: 16px;&quot;&gt;&lt;i style=&quot;font-size: 16px;&quot;&gt;Concrete Decorator&lt;/i&gt;&lt;/b&gt;" style="text;html=1;align=center;verticalAlign=middle;whiteSpace=wrap;rounded=0;fontSize=16;" vertex="1" parent="1">
          <mxGeometry x="120" y="-2859" width="160" height="20" as="geometry" />
        </mxCell>
        <mxCell id="ijBdnt6vm184Yk4polvg-44" value="&lt;b style=&quot;font-size: 16px;&quot;&gt;&lt;i style=&quot;font-size: 16px;&quot;&gt;Concrete Decorator&lt;/i&gt;&lt;/b&gt;" style="text;html=1;align=center;verticalAlign=middle;whiteSpace=wrap;rounded=0;fontSize=16;" vertex="1" parent="1">
          <mxGeometry x="520" y="-2859" width="160" height="20" as="geometry" />
        </mxCell>
        <mxCell id="ijBdnt6vm184Yk4polvg-45" value="&lt;b style=&quot;font-size: 16px;&quot;&gt;&lt;i style=&quot;font-size: 16px;&quot;&gt;Concrete Decorator&lt;/i&gt;&lt;/b&gt;" style="text;html=1;align=center;verticalAlign=middle;whiteSpace=wrap;rounded=0;fontSize=16;" vertex="1" parent="1">
          <mxGeometry x="120" y="-2739" width="160" height="20" as="geometry" />
        </mxCell>
        <mxCell id="ijBdnt6vm184Yk4polvg-46" value="&lt;b style=&quot;font-size: 16px;&quot;&gt;&lt;i style=&quot;font-size: 16px;&quot;&gt;Concrete Decorator&lt;/i&gt;&lt;/b&gt;" style="text;html=1;align=center;verticalAlign=middle;whiteSpace=wrap;rounded=0;fontSize=16;" vertex="1" parent="1">
          <mxGeometry x="520" y="-2739" width="160" height="20" as="geometry" />
        </mxCell>
        <mxCell id="ijBdnt6vm184Yk4polvg-47" value="&lt;b style=&quot;font-size: 16px;&quot;&gt;&lt;i style=&quot;font-size: 16px;&quot;&gt;Concrete Decorator&lt;/i&gt;&lt;/b&gt;" style="text;html=1;align=center;verticalAlign=middle;whiteSpace=wrap;rounded=0;fontSize=16;" vertex="1" parent="1">
          <mxGeometry x="120" y="-2619" width="160" height="20" as="geometry" />
        </mxCell>
        <mxCell id="ijBdnt6vm184Yk4polvg-48" value="&lt;b style=&quot;font-size: 16px;&quot;&gt;&lt;i style=&quot;font-size: 16px;&quot;&gt;Concrete Decorator&lt;/i&gt;&lt;/b&gt;" style="text;html=1;align=center;verticalAlign=middle;whiteSpace=wrap;rounded=0;fontSize=16;" vertex="1" parent="1">
          <mxGeometry x="520" y="-2619" width="160" height="20" as="geometry" />
        </mxCell>
        <mxCell id="ijBdnt6vm184Yk4polvg-49" value="&lt;b style=&quot;font-size: 16px;&quot;&gt;&lt;i style=&quot;font-size: 16px;&quot;&gt;Decorator&lt;/i&gt;&lt;/b&gt;" style="text;html=1;align=center;verticalAlign=middle;whiteSpace=wrap;rounded=0;fontSize=16;" vertex="1" parent="1">
          <mxGeometry x="300" y="-3240" width="90" height="20" as="geometry" />
        </mxCell>
        <mxCell id="ijBdnt6vm184Yk4polvg-59" style="edgeStyle=orthogonalEdgeStyle;rounded=0;orthogonalLoop=1;jettySize=auto;html=1;endSize=12;startSize=12;endArrow=block;endFill=0;dashed=1;dashPattern=8 8;" edge="1" parent="1" source="ijBdnt6vm184Yk4polvg-51" target="ijBdnt6vm184Yk4polvg-11">
          <mxGeometry relative="1" as="geometry">
            <Array as="points">
              <mxPoint x="460" y="-3050" />
              <mxPoint x="460" y="-3050" />
            </Array>
          </mxGeometry>
        </mxCell>
        <mxCell id="ijBdnt6vm184Yk4polvg-51" value="&lt;&lt;abstract&gt;&gt;&#xa;AbstractFilter" style="swimlane;fontStyle=0;align=center;verticalAlign=top;childLayout=stackLayout;horizontal=1;startSize=40;horizontalStack=0;resizeParent=1;resizeLast=0;collapsible=1;marginBottom=0;rounded=0;shadow=0;strokeWidth=1;fillColor=#fff2cc;strokeColor=#d6b656;" vertex="1" parent="1">
          <mxGeometry x="280" y="-2999" width="360" height="80" as="geometry">
            <mxRectangle x="110" y="-20" width="160" height="26" as="alternateBounds" />
          </mxGeometry>
        </mxCell>
        <mxCell id="ijBdnt6vm184Yk4polvg-52" value="" style="line;html=1;strokeWidth=1;align=left;verticalAlign=middle;spacingTop=-1;spacingLeft=3;spacingRight=3;rotatable=0;labelPosition=right;points=[];portConstraint=eastwest;" vertex="1" parent="ijBdnt6vm184Yk4polvg-51">
          <mxGeometry y="40" width="360" height="8" as="geometry" />
        </mxCell>
        <mxCell id="ijBdnt6vm184Yk4polvg-53" value="+ &lt;&lt;abstract&gt;&gt; filter( image : BufferedImage ) : BufferedImage " style="text;align=left;verticalAlign=top;spacingLeft=4;spacingRight=4;overflow=hidden;rotatable=0;points=[[0,0.5],[1,0.5]];portConstraint=eastwest;rounded=0;shadow=0;html=0;" vertex="1" parent="ijBdnt6vm184Yk4polvg-51">
          <mxGeometry y="48" width="360" height="24" as="geometry" />
        </mxCell>
        <mxCell id="ijBdnt6vm184Yk4polvg-65" style="edgeStyle=orthogonalEdgeStyle;rounded=0;orthogonalLoop=1;jettySize=auto;html=1;endSize=12;startSize=12;endArrow=block;endFill=0;" edge="1" parent="1" source="ijBdnt6vm184Yk4polvg-61" target="ijBdnt6vm184Yk4polvg-51">
          <mxGeometry relative="1" as="geometry" />
        </mxCell>
        <mxCell id="ijBdnt6vm184Yk4polvg-61" value="Monochrome" style="swimlane;fontStyle=0;align=center;verticalAlign=top;childLayout=stackLayout;horizontal=1;startSize=30;horizontalStack=0;resizeParent=1;resizeLast=0;collapsible=1;marginBottom=0;rounded=0;shadow=0;strokeWidth=1;fillColor=#fff2cc;strokeColor=#d6b656;" vertex="1" parent="1">
          <mxGeometry x="280" y="-2459" width="360" height="100" as="geometry">
            <mxRectangle x="110" y="-20" width="160" height="26" as="alternateBounds" />
          </mxGeometry>
        </mxCell>
        <mxCell id="ijBdnt6vm184Yk4polvg-62" value="" style="line;html=1;strokeWidth=1;align=left;verticalAlign=middle;spacingTop=-1;spacingLeft=3;spacingRight=3;rotatable=0;labelPosition=right;points=[];portConstraint=eastwest;" vertex="1" parent="ijBdnt6vm184Yk4polvg-61">
          <mxGeometry y="30" width="360" height="8" as="geometry" />
        </mxCell>
        <mxCell id="ijBdnt6vm184Yk4polvg-63" value="+ filter( image : BufferedImage ) : BufferedImage " style="text;align=left;verticalAlign=top;spacingLeft=4;spacingRight=4;overflow=hidden;rotatable=0;points=[[0,0.5],[1,0.5]];portConstraint=eastwest;rounded=0;shadow=0;html=0;" vertex="1" parent="ijBdnt6vm184Yk4polvg-61">
          <mxGeometry y="38" width="360" height="24" as="geometry" />
        </mxCell>
        <mxCell id="ijBdnt6vm184Yk4polvg-66" value="+ shiftValue( original: Integer , shiftMagnitude Integer ) : Integer" style="text;align=left;verticalAlign=top;spacingLeft=4;spacingRight=4;overflow=hidden;rotatable=0;points=[[0,0.5],[1,0.5]];portConstraint=eastwest;rounded=0;shadow=0;html=0;" vertex="1" parent="ijBdnt6vm184Yk4polvg-61">
          <mxGeometry y="62" width="360" height="24" as="geometry" />
        </mxCell>
        <mxCell id="ijBdnt6vm184Yk4polvg-64" value="&lt;b style=&quot;font-size: 16px;&quot;&gt;&lt;i style=&quot;font-size: 16px;&quot;&gt;Concrete Decorator&lt;/i&gt;&lt;/b&gt;" style="text;html=1;align=center;verticalAlign=middle;whiteSpace=wrap;rounded=0;fontSize=16;" vertex="1" parent="1">
          <mxGeometry x="280" y="-2479" width="160" height="20" as="geometry" />
        </mxCell>
        <mxCell id="ijBdnt6vm184Yk4polvg-94" style="edgeStyle=orthogonalEdgeStyle;rounded=0;orthogonalLoop=1;jettySize=auto;html=1;endSize=12;startSize=12;dashed=1;dashPattern=8 8;endArrow=block;endFill=0;" edge="1" parent="1" source="ijBdnt6vm184Yk4polvg-77" target="ijBdnt6vm184Yk4polvg-11">
          <mxGeometry relative="1" as="geometry">
            <Array as="points">
              <mxPoint x="880" y="-3160" />
              <mxPoint x="880" y="-3160" />
            </Array>
          </mxGeometry>
        </mxCell>
        <mxCell id="ijBdnt6vm184Yk4polvg-96" style="edgeStyle=orthogonalEdgeStyle;rounded=0;orthogonalLoop=1;jettySize=auto;html=1;dashed=1;dashPattern=8 8;endSize=12;startSize=12;endArrow=block;endFill=0;" edge="1" parent="1" source="ijBdnt6vm184Yk4polvg-68" target="ijBdnt6vm184Yk4polvg-11">
          <mxGeometry relative="1" as="geometry">
            <Array as="points">
              <mxPoint x="840" y="-2893" />
              <mxPoint x="840" y="-3160" />
            </Array>
          </mxGeometry>
        </mxCell>
        <mxCell id="ijBdnt6vm184Yk4polvg-98" style="edgeStyle=orthogonalEdgeStyle;rounded=0;orthogonalLoop=1;jettySize=auto;html=1;endSize=12;startSize=12;endArrow=block;endFill=0;dashed=1;dashPattern=8 8;" edge="1" parent="1" source="ijBdnt6vm184Yk4polvg-68" target="ijBdnt6vm184Yk4polvg-83">
          <mxGeometry relative="1" as="geometry">
            <mxPoint x="1470" y="-3032" as="targetPoint" />
            <Array as="points">
              <mxPoint x="1400" y="-2893" />
              <mxPoint x="1400" y="-3160" />
            </Array>
          </mxGeometry>
        </mxCell>
        <mxCell id="ijBdnt6vm184Yk4polvg-68" value="EndPipe" style="swimlane;fontStyle=0;align=center;verticalAlign=top;childLayout=stackLayout;horizontal=1;startSize=30;horizontalStack=0;resizeParent=1;resizeLast=0;collapsible=1;marginBottom=0;rounded=0;shadow=0;strokeWidth=1;fillColor=#fff2cc;strokeColor=#d6b656;" vertex="1" parent="1">
          <mxGeometry x="920" y="-2972" width="400" height="158" as="geometry">
            <mxRectangle x="110" y="-20" width="160" height="26" as="alternateBounds" />
          </mxGeometry>
        </mxCell>
        <mxCell id="ijBdnt6vm184Yk4polvg-69" value="" style="line;html=1;strokeWidth=1;align=left;verticalAlign=middle;spacingTop=-1;spacingLeft=3;spacingRight=3;rotatable=0;labelPosition=right;points=[];portConstraint=eastwest;" vertex="1" parent="ijBdnt6vm184Yk4polvg-68">
          <mxGeometry y="30" width="400" height="8" as="geometry" />
        </mxCell>
        <mxCell id="ijBdnt6vm184Yk4polvg-75" value="+ filter( image : BufferedImage ) : BufferedImage " style="text;align=left;verticalAlign=top;spacingLeft=4;spacingRight=4;overflow=hidden;rotatable=0;points=[[0,0.5],[1,0.5]];portConstraint=eastwest;rounded=0;shadow=0;html=0;" vertex="1" parent="ijBdnt6vm184Yk4polvg-68">
          <mxGeometry y="38" width="400" height="24" as="geometry" />
        </mxCell>
        <mxCell id="ijBdnt6vm184Yk4polvg-73" value="+ addFilter ( next: ImageFilter )" style="text;align=left;verticalAlign=top;spacingLeft=4;spacingRight=4;overflow=hidden;rotatable=0;points=[[0,0.5],[1,0.5]];portConstraint=eastwest;rounded=0;shadow=0;html=0;" vertex="1" parent="ijBdnt6vm184Yk4polvg-68">
          <mxGeometry y="62" width="400" height="24" as="geometry" />
        </mxCell>
        <mxCell id="ijBdnt6vm184Yk4polvg-71" value="+ addPipeFrom ( newPipe: ImageFilterPipe  , aPipe: ImageFilterPipe )" style="text;align=left;verticalAlign=top;spacingLeft=4;spacingRight=4;overflow=hidden;rotatable=0;points=[[0,0.5],[1,0.5]];portConstraint=eastwest;rounded=0;shadow=0;html=0;" vertex="1" parent="ijBdnt6vm184Yk4polvg-68">
          <mxGeometry y="86" width="400" height="24" as="geometry" />
        </mxCell>
        <mxCell id="ijBdnt6vm184Yk4polvg-72" value="+ setNextPipe ( newPipe: ImageFilterPipe )&#xa;" style="text;align=left;verticalAlign=top;spacingLeft=4;spacingRight=4;overflow=hidden;rotatable=0;points=[[0,0.5],[1,0.5]];portConstraint=eastwest;rounded=0;shadow=0;html=0;" vertex="1" parent="ijBdnt6vm184Yk4polvg-68">
          <mxGeometry y="110" width="400" height="24" as="geometry" />
        </mxCell>
        <mxCell id="ijBdnt6vm184Yk4polvg-100" style="edgeStyle=orthogonalEdgeStyle;rounded=0;orthogonalLoop=1;jettySize=auto;html=1;" edge="1" parent="1" source="ijBdnt6vm184Yk4polvg-77" target="ijBdnt6vm184Yk4polvg-83">
          <mxGeometry relative="1" as="geometry">
            <Array as="points">
              <mxPoint x="1390" y="-3200" />
              <mxPoint x="1390" y="-3200" />
            </Array>
          </mxGeometry>
        </mxCell>
        <mxCell id="ijBdnt6vm184Yk4polvg-102" style="edgeStyle=orthogonalEdgeStyle;rounded=0;orthogonalLoop=1;jettySize=auto;html=1;" edge="1" parent="1" source="ijBdnt6vm184Yk4polvg-77" target="ijBdnt6vm184Yk4polvg-11">
          <mxGeometry relative="1" as="geometry">
            <Array as="points">
              <mxPoint x="910" y="-3200" />
              <mxPoint x="910" y="-3200" />
            </Array>
          </mxGeometry>
        </mxCell>
        <mxCell id="ijBdnt6vm184Yk4polvg-107" style="edgeStyle=orthogonalEdgeStyle;rounded=0;orthogonalLoop=1;jettySize=auto;html=1;endSize=12;startSize=12;endArrow=block;endFill=0;dashed=1;dashPattern=8 8;" edge="1" parent="1" source="ijBdnt6vm184Yk4polvg-77" target="ijBdnt6vm184Yk4polvg-83">
          <mxGeometry relative="1" as="geometry">
            <Array as="points">
              <mxPoint x="1390" y="-3160" />
              <mxPoint x="1390" y="-3160" />
            </Array>
          </mxGeometry>
        </mxCell>
        <mxCell id="ijBdnt6vm184Yk4polvg-77" value="ImageFilterPipe" style="swimlane;fontStyle=0;align=center;verticalAlign=top;childLayout=stackLayout;horizontal=1;startSize=30;horizontalStack=0;resizeParent=1;resizeLast=0;collapsible=1;marginBottom=0;rounded=0;shadow=0;strokeWidth=1;fillColor=#fff2cc;strokeColor=#d6b656;" vertex="1" parent="1">
          <mxGeometry x="920" y="-3259" width="400" height="158" as="geometry">
            <mxRectangle x="110" y="-20" width="160" height="26" as="alternateBounds" />
          </mxGeometry>
        </mxCell>
        <mxCell id="ijBdnt6vm184Yk4polvg-78" value="" style="line;html=1;strokeWidth=1;align=left;verticalAlign=middle;spacingTop=-1;spacingLeft=3;spacingRight=3;rotatable=0;labelPosition=right;points=[];portConstraint=eastwest;" vertex="1" parent="ijBdnt6vm184Yk4polvg-77">
          <mxGeometry y="30" width="400" height="8" as="geometry" />
        </mxCell>
        <mxCell id="ijBdnt6vm184Yk4polvg-82" value="+ filter( image : BufferedImage ) : BufferedImage " style="text;align=left;verticalAlign=top;spacingLeft=4;spacingRight=4;overflow=hidden;rotatable=0;points=[[0,0.5],[1,0.5]];portConstraint=eastwest;rounded=0;shadow=0;html=0;" vertex="1" parent="ijBdnt6vm184Yk4polvg-77">
          <mxGeometry y="38" width="400" height="24" as="geometry" />
        </mxCell>
        <mxCell id="ijBdnt6vm184Yk4polvg-81" value="+ addFilter ( next: ImageFilter )" style="text;align=left;verticalAlign=top;spacingLeft=4;spacingRight=4;overflow=hidden;rotatable=0;points=[[0,0.5],[1,0.5]];portConstraint=eastwest;rounded=0;shadow=0;html=0;" vertex="1" parent="ijBdnt6vm184Yk4polvg-77">
          <mxGeometry y="62" width="400" height="24" as="geometry" />
        </mxCell>
        <mxCell id="ijBdnt6vm184Yk4polvg-79" value="+ addPipeFrom ( newPipe: ImageFilterPipe  , aPipe: ImageFilterPipe )" style="text;align=left;verticalAlign=top;spacingLeft=4;spacingRight=4;overflow=hidden;rotatable=0;points=[[0,0.5],[1,0.5]];portConstraint=eastwest;rounded=0;shadow=0;html=0;" vertex="1" parent="ijBdnt6vm184Yk4polvg-77">
          <mxGeometry y="86" width="400" height="24" as="geometry" />
        </mxCell>
        <mxCell id="ijBdnt6vm184Yk4polvg-80" value="+ setNextPipe ( newPipe: ImageFilterPipe )&#xa;" style="text;align=left;verticalAlign=top;spacingLeft=4;spacingRight=4;overflow=hidden;rotatable=0;points=[[0,0.5],[1,0.5]];portConstraint=eastwest;rounded=0;shadow=0;html=0;" vertex="1" parent="ijBdnt6vm184Yk4polvg-77">
          <mxGeometry y="110" width="400" height="24" as="geometry" />
        </mxCell>
        <mxCell id="ijBdnt6vm184Yk4polvg-83" value="ImageFilterPipeInterface" style="swimlane;fontStyle=0;align=center;verticalAlign=top;childLayout=stackLayout;horizontal=1;startSize=30;horizontalStack=0;resizeParent=1;resizeLast=0;collapsible=1;marginBottom=0;rounded=0;shadow=0;strokeWidth=1;fillColor=#fff2cc;strokeColor=#d6b656;" vertex="1" parent="1">
          <mxGeometry x="1520" y="-3259" width="400" height="158" as="geometry">
            <mxRectangle x="110" y="-20" width="160" height="26" as="alternateBounds" />
          </mxGeometry>
        </mxCell>
        <mxCell id="ijBdnt6vm184Yk4polvg-84" value="" style="line;html=1;strokeWidth=1;align=left;verticalAlign=middle;spacingTop=-1;spacingLeft=3;spacingRight=3;rotatable=0;labelPosition=right;points=[];portConstraint=eastwest;" vertex="1" parent="ijBdnt6vm184Yk4polvg-83">
          <mxGeometry y="30" width="400" height="8" as="geometry" />
        </mxCell>
        <mxCell id="ijBdnt6vm184Yk4polvg-88" value="+ filter( image : BufferedImage ) : BufferedImage " style="text;align=left;verticalAlign=top;spacingLeft=4;spacingRight=4;overflow=hidden;rotatable=0;points=[[0,0.5],[1,0.5]];portConstraint=eastwest;rounded=0;shadow=0;html=0;" vertex="1" parent="ijBdnt6vm184Yk4polvg-83">
          <mxGeometry y="38" width="400" height="24" as="geometry" />
        </mxCell>
        <mxCell id="ijBdnt6vm184Yk4polvg-87" value="+ addFilter ( next: ImageFilter )" style="text;align=left;verticalAlign=top;spacingLeft=4;spacingRight=4;overflow=hidden;rotatable=0;points=[[0,0.5],[1,0.5]];portConstraint=eastwest;rounded=0;shadow=0;html=0;" vertex="1" parent="ijBdnt6vm184Yk4polvg-83">
          <mxGeometry y="62" width="400" height="24" as="geometry" />
        </mxCell>
        <mxCell id="ijBdnt6vm184Yk4polvg-85" value="+ addPipeFrom ( newPipe: ImageFilterPipe  , aPipe: ImageFilterPipe )" style="text;align=left;verticalAlign=top;spacingLeft=4;spacingRight=4;overflow=hidden;rotatable=0;points=[[0,0.5],[1,0.5]];portConstraint=eastwest;rounded=0;shadow=0;html=0;" vertex="1" parent="ijBdnt6vm184Yk4polvg-83">
          <mxGeometry y="86" width="400" height="24" as="geometry" />
        </mxCell>
        <mxCell id="ijBdnt6vm184Yk4polvg-86" value="+ setNextPipe ( newPipe: ImageFilterPipe )&#xa;" style="text;align=left;verticalAlign=top;spacingLeft=4;spacingRight=4;overflow=hidden;rotatable=0;points=[[0,0.5],[1,0.5]];portConstraint=eastwest;rounded=0;shadow=0;html=0;" vertex="1" parent="ijBdnt6vm184Yk4polvg-83">
          <mxGeometry y="110" width="400" height="24" as="geometry" />
        </mxCell>
        <mxCell id="ijBdnt6vm184Yk4polvg-90" value="nextPipe" style="text;html=1;align=center;verticalAlign=middle;whiteSpace=wrap;rounded=0;fontSize=14;" vertex="1" parent="1">
          <mxGeometry x="730" y="-3223.12" width="70" height="25" as="geometry" />
        </mxCell>
        <mxCell id="ijBdnt6vm184Yk4polvg-91" value="&lt;font style=&quot;font-size: 13px;&quot;&gt;1&lt;/font&gt;" style="text;html=1;align=center;verticalAlign=middle;whiteSpace=wrap;rounded=0;fontSize=22;" vertex="1" parent="1">
          <mxGeometry x="755" y="-3201.25" width="20" height="20" as="geometry" />
        </mxCell>
        <mxCell id="ijBdnt6vm184Yk4polvg-92" style="edgeStyle=orthogonalEdgeStyle;rounded=0;orthogonalLoop=1;jettySize=auto;html=1;exitX=0.5;exitY=1;exitDx=0;exitDy=0;" edge="1" parent="1" source="ijBdnt6vm184Yk4polvg-91" target="ijBdnt6vm184Yk4polvg-91">
          <mxGeometry relative="1" as="geometry" />
        </mxCell>
        <mxCell id="ijBdnt6vm184Yk4polvg-104" style="edgeStyle=orthogonalEdgeStyle;rounded=0;orthogonalLoop=1;jettySize=auto;html=1;" edge="1" parent="1">
          <mxGeometry relative="1" as="geometry">
            <mxPoint x="160" y="-3200" as="sourcePoint" />
            <mxPoint x="300" y="-3200" as="targetPoint" />
            <Array as="points">
              <mxPoint x="270" y="-3200" />
              <mxPoint x="270" y="-3200" />
            </Array>
          </mxGeometry>
        </mxCell>
        <mxCell id="ijBdnt6vm184Yk4polvg-106" value="*" style="text;html=1;align=center;verticalAlign=middle;whiteSpace=wrap;rounded=0;fontSize=22;" vertex="1" parent="1">
          <mxGeometry x="170" y="-3188.75" width="40" height="48.75" as="geometry" />
        </mxCell>
        <mxCell id="ijBdnt6vm184Yk4polvg-108" value="&lt;font style=&quot;font-size: 15px;&quot;&gt;filter&lt;/font&gt;" style="text;html=1;align=center;verticalAlign=middle;whiteSpace=wrap;rounded=0;fontSize=14;" vertex="1" parent="1">
          <mxGeometry x="1350" y="-3230" width="80" height="31.88" as="geometry" />
        </mxCell>
        <mxCell id="ijBdnt6vm184Yk4polvg-109" value="&lt;font style=&quot;font-size: 13px;&quot;&gt;1&lt;/font&gt;" style="text;html=1;align=center;verticalAlign=middle;whiteSpace=wrap;rounded=0;fontSize=22;" vertex="1" parent="1">
          <mxGeometry x="1380" y="-3201.25" width="20" height="20" as="geometry" />
        </mxCell>
        <mxCell id="ijBdnt6vm184Yk4polvg-110" style="edgeStyle=orthogonalEdgeStyle;rounded=0;orthogonalLoop=1;jettySize=auto;html=1;exitX=0.5;exitY=1;exitDx=0;exitDy=0;" edge="1" parent="1" source="ijBdnt6vm184Yk4polvg-109" target="ijBdnt6vm184Yk4polvg-109">
          <mxGeometry relative="1" as="geometry" />
        </mxCell>
      </root>
    </mxGraphModel>
  </diagram>
</mxfile>
